<svg xmlns="http://www.w3.org/2000/svg" viewBox="0 0 600 400" role="img" aria-label="A cozy bedroom with a bed, desk, toys, books, and a window">
  <!-- Background -->
  <rect width="600" height="400" fill="#FCE4EC"/>
  <!-- Floor -->
  <rect y="310" width="600" height="90" fill="#F8BBD9"/>
  <!-- Walls -->
  <rect width="600" height="310" fill="#FCE4EC"/>
  <!-- Window -->
  <rect x="230" y="25" width="140" height="110" rx="8" fill="#B3E5FC" stroke="#90CAF9" stroke-width="3"/>
  <line x1="300" y1="25" x2="300" y2="135" stroke="#90CAF9" stroke-width="2"/>
  <line x1="230" y1="80" x2="370" y2="80" stroke="#90CAF9" stroke-width="2"/>
  <!-- Curtains -->
  <path d="M220 15 Q250 80 230 140" stroke="#F48FB1" stroke-width="18" fill="none" stroke-linecap="round"/>
  <path d="M380 15 Q350 80 370 140" stroke="#F48FB1" stroke-width="18" fill="none" stroke-linecap="round"/>
  <!-- Stars/moon on window -->
  <text x="265" y="65" font-size="16" fill="#FFF9C4">☀️</text>
  <!-- Bed -->
  <rect x="30" y="180" width="180" height="130" rx="10" fill="#F8BBD9" stroke="#F06292" stroke-width="3"/>
  <!-- Mattress -->
  <rect x="40" y="195" width="160" height="105" rx="6" fill="#fff"/>
  <!-- Pillow -->
  <rect x="50" y="200" width="60" height="40" rx="10" fill="#FAFAFA" stroke="#E0E0E0" stroke-width="2"/>
  <rect x="120" y="200" width="60" height="40" rx="10" fill="#FAFAFA" stroke="#E0E0E0" stroke-width="2"/>
  <!-- Blanket -->
  <rect x="40" y="245" width="160" height="55" rx="6" fill="#EF9A9A" stroke="#E57373" stroke-width="2"/>
  <!-- Blanket pattern -->
  <line x1="80" y1="245" x2="80" y2="300" stroke="#EF5350" stroke-width="1" stroke-dasharray="4,4"/>
  <line x1="120" y1="245" x2="120" y2="300" stroke="#EF5350" stroke-width="1" stroke-dasharray="4,4"/>
  <line x1="160" y1="245" x2="160" y2="300" stroke="#EF5350" stroke-width="1" stroke-dasharray="4,4"/>
  <!-- Headboard -->
  <rect x="20" y="165" width="200" height="25" rx="8" fill="#F06292"/>
  <!-- Bedside table -->
  <rect x="215" y="245" width="60" height="65" rx="6" fill="#CE93D8" stroke="#AB47BC" stroke-width="2"/>
  <!-- Lamp on bedside table -->
  <rect x="237" y="220" width="8" height="28" rx="3" fill="#9E9E9E"/>
  <ellipse cx="241" cy="220" rx="25" ry="10" fill="#FFF176" stroke="#F9A825" stroke-width="2"/>
  <!-- Book on bedside table -->
  <rect x="220" y="238" width="18" height="12" rx="2" fill="#42A5F5"/>
  <!-- Desk -->
  <rect x="400" y="200" width="180" height="15" rx="5" fill="#CE93D8"/>
  <rect x="410" y="215" width="20" height="95" rx="4" fill="#BA68C8"/>
  <rect x="550" y="215" width="20" height="95" rx="4" fill="#BA68C8"/>
  <!-- Chair at desk -->
  <rect x="430" y="290" width="100" height="12" rx="5" fill="#FFF176" stroke="#F9A825" stroke-width="2"/>
  <rect x="438" y="302" width="12" height="22" rx="3" fill="#F9A825"/>
  <rect x="520" y="302" width="12" height="22" rx="3" fill="#F9A825"/>
  <rect x="440" y="270" width="90" height="25" rx="5" fill="#FFF176" stroke="#F9A825" stroke-width="2"/>
  <!-- Books on desk (stack of 4) -->
  <rect x="408" y="170" width="22" height="34" rx="2" fill="#E91E63"/>
  <rect x="408" y="162" width="22" height="14" rx="2" fill="#9C27B0"/>
  <rect x="408" y="155" width="22" height="12" rx="2" fill="#3F51B5"/>
  <rect x="408" y="148" width="22" height="12" rx="2" fill="#4CAF50"/>
  <!-- Computer/monitor on desk -->
  <rect x="450" y="155" width="90" height="50" rx="6" fill="#37474F" stroke="#263238" stroke-width="2"/>
  <rect x="458" y="162" width="74" height="36" rx="3" fill="#546E7A"/>
  <rect x="483" y="205" width="20" height="8" rx="3" fill="#263238"/>
  <rect x="473" y="210" width="40" height="5" rx="2" fill="#263238"/>
  <!-- Keyboard -->
  <rect x="455" y="195" width="70" height="10" rx="3" fill="#607D8B"/>
  <!-- Toys on floor -->
  <!-- Teddy bear -->
  <circle cx="340" cy="330" r="22" fill="#FFCC80"/>
  <circle cx="340" cy="308" r="16" fill="#FFCC80"/>
  <circle cx="328" cy="303" r="8" fill="#FFA726"/>
  <circle cx="352" cy="303" r="8" fill="#FFA726"/>
  <circle cx="336" cy="314" r="3" fill="#5D4037"/>
  <circle cx="344" cy="314" r="3" fill="#5D4037"/>
  <path d="M336 320 Q340 324 344 320" stroke="#5D4037" stroke-width="2" fill="none"/>
  <!-- Ball -->
  <circle cx="410" cy="345" r="20" fill="#FF7043" stroke="#E64A19" stroke-width="2"/>
  <path d="M393 338 Q410 348 427 338" stroke="#E64A19" stroke-width="2" fill="none"/>
  <path d="M395 355 Q410 345 425 355" stroke="#E64A19" stroke-width="2" fill="none"/>
  <!-- Bookshelf on wall -->
  <rect x="480" y="50" width="110" height="140" rx="5" fill="#BCAAA4" stroke="#A1887F" stroke-width="2"/>
  <!-- Shelves -->
  <rect x="480" y="90" width="110" height="6" fill="#8D6E63"/>
  <rect x="480" y="130" width="110" height="6" fill="#8D6E63"/>
  <!-- Books on shelves -->
  <rect x="488" y="55" width="12" height="38" rx="2" fill="#F44336"/>
  <rect x="502" y="58" width="12" height="35" rx="2" fill="#2196F3"/>
  <rect x="516" y="55" width="12" height="38" rx="2" fill="#FFEB3B"/>
  <rect x="530" y="60" width="12" height="33" rx="2" fill="#4CAF50"/>
  <rect x="544" y="56" width="14" height="37" rx="2" fill="#9C27B0"/>
  <!-- second shelf books -->
  <rect x="488" y="95" width="14" height="38" rx="2" fill="#FF9800"/>
  <rect x="504" y="98" width="12" height="35" rx="2" fill="#00BCD4"/>
  <rect x="518" y="94" width="12" height="39" rx="2" fill="#E91E63"/>
  <rect x="532" y="97" width="14" height="36" rx="2" fill="#8BC34A"/>
  <!-- Toy car on floor -->
  <rect x="130" y="337" width="50" height="22" rx="6" fill="#29B6F6" stroke="#0288D1" stroke-width="2"/>
  <rect x="140" y="330" width="30" height="15" rx="5" fill="#0288D1"/>
  <circle cx="143" cy="359" r="8" fill="#424242"/>
  <circle cx="167" cy="359" r="8" fill="#424242"/>
  <circle cx="143" cy="359" r="4" fill="#9E9E9E"/>
  <circle cx="167" cy="359" r="4" fill="#9E9E9E"/>
  <!-- Rug on floor -->
  <ellipse cx="240" cy="355" rx="90" ry="35" fill="#FFE0B2" stroke="#FF9800" stroke-width="3"/>
  <!-- Star decoration on rug -->
  <text x="218" y="360" font-size="22" fill="#FF9800">★</text>
  <!-- 1 bed, 1 desk, 4 books on desk, 5+4 books on shelf, 1 teddy, 1 ball, 1 car, 1 lamp, 1 computer -->
</svg>
