<svg xmlns="http://www.w3.org/2000/svg" viewBox="0 0 600 400" role="img" aria-label="A colorful kitchen with a table, fruits, a refrigerator, and kitchen items">
  <!-- Background -->
  <rect width="600" height="400" fill="#FFF8E1"/>
  <!-- Floor tiles -->
  <rect y="310" width="600" height="90" fill="#F5E6C8"/>
  <rect width="600" height="310" fill="#FFF8E1"/>
  <!-- Tile pattern floor -->
  <line x1="0" y1="330" x2="600" y2="330" stroke="#EDD9A3" stroke-width="1"/>
  <line x1="0" y1="350" x2="600" y2="350" stroke="#EDD9A3" stroke-width="1"/>
  <line x1="0" y1="370" x2="600" y2="370" stroke="#EDD9A3" stroke-width="1"/>
  <line x1="100" y1="310" x2="100" y2="400" stroke="#EDD9A3" stroke-width="1"/>
  <line x1="200" y1="310" x2="200" y2="400" stroke="#EDD9A3" stroke-width="1"/>
  <line x1="300" y1="310" x2="300" y2="400" stroke="#EDD9A3" stroke-width="1"/>
  <line x1="400" y1="310" x2="400" y2="400" stroke="#EDD9A3" stroke-width="1"/>
  <line x1="500" y1="310" x2="500" y2="400" stroke="#EDD9A3" stroke-width="1"/>
  <!-- Refrigerator -->
  <rect x="480" y="60" width="100" height="250" rx="8" fill="#ECEFF1" stroke="#B0BEC5" stroke-width="3"/>
  <rect x="490" y="70" width="80" height="100" rx="4" fill="#CFD8DC"/>
  <rect x="490" y="180" width="80" height="120" rx="4" fill="#CFD8DC"/>
  <circle cx="563" cy="115" r="5" fill="#90A4AE"/>
  <circle cx="563" cy="235" r="5" fill="#90A4AE"/>
  <!-- Fridge handle -->
  <rect x="557" y="100" width="10" height="30" rx="5" fill="#78909C"/>
  <rect x="557" y="220" width="10" height="30" rx="5" fill="#78909C"/>
  <!-- Kitchen counter left -->
  <rect x="0" y="200" width="160" height="15" rx="4" fill="#BCAAA4"/>
  <rect x="0" y="215" width="160" height="95" fill="#A1887F"/>
  <!-- Stove -->
  <rect x="10" y="155" width="140" height="50" rx="6" fill="#78909C"/>
  <circle cx="45" cy="175" r="18" fill="#546E7A" stroke="#37474F" stroke-width="2"/>
  <circle cx="45" cy="175" r="8" fill="#455A64"/>
  <circle cx="115" cy="175" r="18" fill="#546E7A" stroke="#37474F" stroke-width="2"/>
  <circle cx="115" cy="175" r="8" fill="#455A64"/>
  <!-- Pot on stove -->
  <rect x="25" y="152" width="40" height="28" rx="4" fill="#37474F"/>
  <rect x="20" y="150" width="50" height="8" rx="3" fill="#263238"/>
  <rect x="15" y="154" width="8" height="5" rx="2" fill="#263238"/>
  <rect x="57" y="154" width="8" height="5" rx="2" fill="#263238"/>
  <!-- Shelf with items -->
  <rect x="0" y="60" width="155" height="10" rx="3" fill="#8D6E63"/>
  <!-- Jars on shelf -->
  <rect x="15" y="30" width="22" height="34" rx="5" fill="#F9A825" stroke="#F57F17" stroke-width="2"/>
  <rect x="19" y="26" width="14" height="8" rx="3" fill="#F57F17"/>
  <rect x="50" y="33" width="20" height="30" rx="5" fill="#EF5350" stroke="#C62828" stroke-width="2"/>
  <rect x="54" y="29" width="12" height="7" rx="3" fill="#C62828"/>
  <rect x="83" y="28" width="24" height="35" rx="5" fill="#AB47BC" stroke="#7B1FA2" stroke-width="2"/>
  <rect x="88" y="24" width="14" height="8" rx="3" fill="#7B1FA2"/>
  <rect x="120" y="32" width="20" height="31" rx="5" fill="#26C6DA" stroke="#00838F" stroke-width="2"/>
  <rect x="124" y="28" width="12" height="7" rx="3" fill="#00838F"/>
  <!-- Kitchen table -->
  <rect x="170" y="220" width="290" height="18" rx="8" fill="#A1887F"/>
  <rect x="185" y="238" width="25" height="70" rx="5" fill="#8D6E63"/>
  <rect x="420" y="238" width="25" height="70" rx="5" fill="#8D6E63"/>
  <!-- Fruits on table -->
  <!-- 3 apples -->
  <circle cx="230" cy="207" r="18" fill="#F44336"/>
  <rect x="229" y="189" width="4" height="9" fill="#4CAF50"/>
  <circle cx="270" cy="209" r="18" fill="#F44336"/>
  <rect x="269" y="191" width="4" height="9" fill="#4CAF50"/>
  <circle cx="310" cy="207" r="18" fill="#66BB6A"/>
  <rect x="309" y="189" width="4" height="9" fill="#388E3C"/>
  <!-- 2 bananas -->
  <path d="M340 195 Q370 185 385 210" stroke="#FFEB3B" stroke-width="10" fill="none" stroke-linecap="round"/>
  <path d="M355 190 Q385 180 400 205" stroke="#FFEB3B" stroke-width="10" fill="none" stroke-linecap="round"/>
  <!-- Bowl -->
  <ellipse cx="385" cy="218" rx="50" ry="12" fill="#FF7043" stroke="#E64A19" stroke-width="2"/>
  <path d="M335 218 Q385 245 435 218" fill="#FF7043" stroke="#E64A19" stroke-width="2"/>
  <!-- Bread on table -->
  <ellipse cx="460" cy="215" rx="30" ry="15" fill="#F9A825"/>
  <ellipse cx="460" cy="210" rx="28" ry="12" fill="#FBC02D"/>
  <!-- Cups -->
  <rect x="195" y="207" width="20" height="18" rx="4" fill="#F48FB1"/>
  <path d="M215 212 Q225 216 215 220" stroke="#F48FB1" stroke-width="3" fill="none"/>
  <!-- Window above counter -->
  <rect x="200" y="30" width="180" height="100" rx="8" fill="#B3E5FC" stroke="#42A5F5" stroke-width="3"/>
  <line x1="290" y1="30" x2="290" y2="130" stroke="#42A5F5" stroke-width="2"/>
  <line x1="200" y1="80" x2="380" y2="80" stroke="#42A5F5" stroke-width="2"/>
  <!-- Plant on window sill -->
  <rect x="360" y="127" width="16" height="20" rx="3" fill="#8D6E63"/>
  <circle cx="368" cy="118" r="14" fill="#66BB6A"/>
  <circle cx="358" cy="124" r="10" fill="#4CAF50"/>
  <circle cx="378" cy="124" r="10" fill="#4CAF50"/>
  <!-- 1 refrigerator, 3 apples, 2 bananas, 4 jars, 1 bowl, 1 bread, 1 pot -->
</svg>
